<svg width="249" height="62" viewBox="0 0 249 62" fill="none" xmlns="http://www.w3.org/2000/svg">
<rect width="249" height="62" fill="#1E1E1E"/>
<rect width="1440" height="1986" transform="translate(-65 -15)" fill="white"/>
<g clip-path="url(#clip0_0_1)">
<path d="M113.284 47.5135H102.662L102.306 49.5404H112.335L111.979 51.4481H101.95L101.535 53.7731H112.335L111.979 55.9192H98.4487L100.288 45.4865H113.64L113.284 47.5135Z" fill="#D80027"/>
<path d="M112.453 55.8596L119.456 50.5538L114.412 45.4269H118.032L121.474 49.0038L126.102 45.4269H130.019L123.194 50.5538L128.357 55.8596H124.737L121.177 52.0442L116.311 55.8596H112.453Z" fill="#D80027"/>
<path d="M129.247 55.8596L131.087 45.4269H142.777C144.558 45.4269 145.329 46.3211 145.032 48.1692L144.676 50.1365C144.498 51.0904 144.202 51.6865 143.786 52.0442C143.371 52.4019 142.659 52.5808 141.769 52.5808H132.511L131.918 55.8596H129.247ZM132.927 50.6731H140.938C141.709 50.6731 141.947 50.4346 142.065 49.6596L142.243 48.4673C142.362 47.6923 142.125 47.3942 141.353 47.3942H133.461L132.927 50.6731Z" fill="#D80027"/>
<path d="M158.503 45.4269C160.283 45.4269 161.055 46.3211 160.758 48.1692L160.521 49.6C160.343 50.4942 160.046 51.15 159.631 51.5077C159.215 51.8654 158.503 52.0442 157.613 52.0442L157.02 52.1038L159.69 55.8596H156.545L153.993 52.2231H148.296L147.643 55.8596H144.914L146.753 45.4269H158.503ZM157.969 48.4077C158.088 47.6327 157.85 47.3346 157.079 47.3346H149.186L148.652 50.375H156.663C157.435 50.375 157.672 50.1365 157.85 49.3615L157.969 48.4077Z" fill="#D80027"/>
<path d="M175.712 47.5135H165.09L164.734 49.5404H174.763L174.407 51.4481H164.378L163.963 53.7731H174.763L174.407 55.9192H160.877L162.716 45.4865H176.068L175.712 47.5135Z" fill="#D80027"/>
<path d="M176.068 52.6404H178.739L178.62 53.0577C178.561 53.6538 178.739 53.8923 179.332 53.8923H187.165C187.759 53.8923 187.996 53.7135 188.115 53.0577L188.174 52.5808C188.293 51.925 188.174 51.7462 187.581 51.7462L178.798 51.2692C177.255 51.2096 176.602 50.4346 176.84 48.9442L177.077 47.5135C177.315 45.9635 178.027 45.3673 179.57 45.3673H189.658C191.201 45.3673 191.853 46.1423 191.557 47.7519L191.438 48.4673H188.768L188.827 48.2288C188.886 47.6327 188.708 47.3942 188.056 47.3942H180.578C179.985 47.3942 179.748 47.6327 179.629 48.2288L179.57 48.4077C179.451 49.0635 179.629 49.2423 180.163 49.2423L189.005 49.6596C190.548 49.7192 191.201 50.4942 190.963 52.0442L190.667 53.7731C190.429 55.3231 189.717 55.9192 188.174 55.9192H177.73C176.187 55.9192 175.534 55.1442 175.831 53.5346L176.068 52.6404Z" fill="#D80027"/>
<path d="M192.328 52.6404H194.999L194.939 53.0577C194.88 53.6538 195.058 53.8923 195.711 53.8923H203.544C204.137 53.8923 204.375 53.7135 204.493 53.0577L204.553 52.5808C204.671 51.925 204.553 51.7462 203.959 51.7462L195.058 51.2692C193.515 51.2096 192.862 50.4346 193.1 48.9442L193.337 47.5135C193.574 45.9635 194.286 45.3673 195.829 45.3673H205.917C207.46 45.3673 208.113 46.1423 207.816 47.7519L207.698 48.4673H205.027V48.2288C205.087 47.6327 204.909 47.3942 204.315 47.3942H196.838C196.245 47.3942 196.007 47.6327 195.889 48.2288V48.4077C195.77 49.0635 195.889 49.2423 196.482 49.2423L205.324 49.6596C206.867 49.7192 207.52 50.4942 207.282 52.0442L206.986 53.7731C206.748 55.3231 206.036 55.9192 204.493 55.9192H194.049C192.506 55.9192 191.853 55.1442 192.15 53.5346L192.328 52.6404Z" fill="#D80027"/>
<path d="M208.232 55.8596L208.766 52.9981H211.792L211.258 55.8596H208.232Z" fill="#D80027"/>
<path d="M229.002 45.4269H231.553L229.714 55.8596H227.043L228.29 48.8846L222.355 54.0711H220.812L216.718 48.8846L215.472 55.8596H212.801L214.641 45.4269H216.836L221.762 51.6865L229.002 45.4269Z" fill="#D80027"/>
<path d="M244.431 55.8596L243.481 53.8327H235.292L233.63 55.8596H230.426L239.209 45.4269H242.235L247.398 55.8596H244.431ZM237.013 51.7461H242.532L240.514 47.3942L237.013 51.7461Z" fill="#D80027"/>
<path d="M127.882 20.9846L127.111 25.2769H116.192L113.462 40.6577H108.3L111.029 25.2769H100.051L100.822 20.9846H127.882Z" fill="#0D2271"/>
<path d="M151.857 20.9846C155.239 20.9846 156.663 22.7135 156.07 26.1712L155.595 28.8539C155.299 30.5827 154.765 31.775 153.993 32.4308C153.162 33.0865 151.916 33.4442 150.255 33.4442L149.127 33.6231L154.171 40.6577H148.296L143.489 33.8019H132.749L131.562 40.6577H126.399L129.841 21.0442H151.857V20.9846ZM150.848 26.6481C151.085 25.1577 150.67 24.6212 149.186 24.6212H134.351L133.342 30.3442H148.356C149.78 30.3442 150.255 29.9269 150.551 28.4365L150.848 26.6481Z" fill="#0D2271"/>
<path d="M180.519 40.5981L178.798 36.7827H163.428L160.343 40.5981H154.29L170.846 20.9846H176.543L186.216 40.5981H180.519ZM166.574 32.9077H176.958L173.22 24.8L166.574 32.9077Z" fill="#0D2271"/>
<path d="M214.344 20.9846H219.329L215.887 40.5981H211.674L195.058 26.2308L192.506 40.6577H187.521L190.963 21.0442H195.355L211.733 35.2923L214.344 20.9846Z" fill="#0D2271"/>
<path d="M219.744 34.5769H224.729L224.61 35.3519C224.492 36.4846 224.788 36.9019 226.035 36.9019H240.751C241.879 36.9019 242.294 36.5443 242.472 35.3519L242.591 34.4577C242.769 33.2654 242.591 32.8481 241.523 32.8481L224.848 32.0731C221.94 31.9539 220.753 30.4635 221.228 27.7212L221.703 25.0385C222.177 22.1173 223.483 21.0443 226.391 21.0443H245.321C248.169 21.0443 249.415 22.5346 248.941 25.4558L248.763 26.7673H243.778L243.837 26.35C243.956 25.2173 243.6 24.8 242.413 24.8H228.349C227.221 24.8 226.806 25.2173 226.628 26.35L226.569 26.7077C226.391 27.9 226.628 28.2577 227.637 28.2577L244.312 29.0327C247.22 29.1519 248.407 30.6423 247.932 33.4443L247.398 36.6635C246.923 39.5846 245.617 40.6577 242.71 40.6577H223.127C220.278 40.6577 219.032 39.1673 219.507 36.2462L219.744 34.5769Z" fill="#0D2271"/>
<path d="M64.683 33.1462C60.9445 36.2462 57.3246 39.3462 53.9421 42.3269C41.7769 53.1173 32.9943 62 32.9943 62H41.9549C47.6518 56.2769 52.9926 51.15 57.9773 46.4404L73.347 62L94.7695 61.3442L68.837 36.425C93.0486 14.5462 105.51 6.85577 105.51 6.85577C93.286 11.2077 78.035 22.1173 64.683 33.1462Z" fill="#FC0001"/>
<path d="M59.639 27.1846C59.5796 27.2442 59.4609 27.3038 59.4016 27.3635C59.1049 27.6019 58.7488 27.8404 58.4521 28.0788L57.74 27.3635H39.1066L48.3639 36.7231C32.5196 50.4942 24.5084 62 24.5084 62H28.959C35.6647 53.9519 43.3198 46.4404 51.2717 39.6442C54.7729 36.6635 58.2741 33.8615 61.7753 31.1192C87.1144 11.8038 111.623 0 111.623 0C90.3189 7.33269 73.1096 17.05 59.639 27.1846Z" fill="#0D2271"/>
<path d="M12.4025 16.1558C8.12989 18.7788 3.97593 21.5808 0 24.5615H27.2974V25.1577V54.0115C29.8491 50.9711 33.4097 47.0365 37.979 42.5654V30.1654V25.0981V24.5615H39.1659H57.7993H58.5114C62.4874 21.5808 66.6413 18.7788 70.914 16.1558H12.4025Z" fill="#0D2271"/>
</g>
<defs>
<clipPath id="clip0_0_1">
<rect width="249" height="62" fill="white"/>
</clipPath>
</defs>
</svg>
