<svg xmlns="http://www.w3.org/2000/svg" fill="none" viewBox="29.5 62.03 287.01 212.6">
<path d="M57.7808 258.833H37.5095L36.8335 262.625H55.9695L55.3195 266.244H36.1835L35.4208 270.599H55.9781L55.2675 274.616H29.5015L33.0115 254.816H58.4915L57.7808 258.833Z" fill="#FC0001"/>
<path d="M56.1689 274.616L69.5589 264.547L59.9649 254.816H66.8463L73.4416 261.629L82.3076 254.816H89.7523L76.7003 264.547L86.5283 274.616H79.6469L72.8523 267.43L63.6223 274.616H56.1776H56.1689Z" fill="#FC0001"/>
<path d="M88.2441 274.616L91.7541 254.816H114.062C117.485 254.816 118.933 256.539 118.335 260.019L117.685 263.725C117.373 265.482 116.835 266.694 116.012 267.369C115.189 268.045 113.915 268.391 112.19 268.391H94.5535L93.4528 274.616H88.2441ZM95.2121 264.772H110.448C111.921 264.772 112.32 264.348 112.632 262.876L113.031 260.668C113.282 259.171 112.805 258.608 111.306 258.608H96.2695L95.2208 264.772H95.2121Z" fill="#FC0001"/>
<path d="M143.962 254.825C147.386 254.825 148.833 256.547 148.235 260.028L147.75 262.746C147.438 264.469 146.9 265.69 146.112 266.365C145.288 267.04 144.014 267.387 142.29 267.387L141.154 267.56L146.276 274.633H140.331L135.46 267.733H124.558L123.336 274.633H118.127L121.637 254.833H143.945L143.962 254.825ZM142.94 260.513C143.191 259.015 142.74 258.452 141.241 258.452H126.204L125.182 264.218H140.418C141.891 264.218 142.316 263.794 142.628 262.322L142.94 260.513Z" fill="#FC0001"/>
<path d="M176.8 258.833H156.529L155.853 262.625H174.989L174.339 266.244H155.203L154.44 270.599H174.998L174.287 274.616H148.521L152.031 254.816H177.511L176.8 258.833Z" fill="#FC0001"/>
<path d="M177.476 268.512H182.512L182.399 269.274C182.26 270.434 182.598 270.858 183.812 270.858H198.762C199.923 270.858 200.322 270.495 200.521 269.274L200.66 268.4C200.859 267.188 200.634 266.789 199.585 266.763L182.685 265.967C179.738 265.828 178.525 264.357 179.002 261.551L179.487 258.833C179.972 255.889 181.298 254.816 184.219 254.816H203.416C206.336 254.816 207.55 256.314 207.064 259.283L206.865 260.582H201.821L201.882 260.158C202.02 258.998 201.63 258.573 200.469 258.573H186.195C185.034 258.573 184.635 258.998 184.436 260.158L184.375 260.521C184.176 261.742 184.436 262.08 185.45 262.106L202.35 262.893C205.296 263.032 206.51 264.538 206.033 267.361L205.47 270.581C204.984 273.525 203.658 274.598 200.738 274.598H180.865C177.944 274.598 176.731 273.101 177.216 270.131L177.468 268.495L177.476 268.512Z" fill="#FC0001"/>
<path d="M208.503 268.512H213.538L213.425 269.274C213.287 270.434 213.625 270.858 214.838 270.858H229.788C230.949 270.858 231.348 270.495 231.547 269.274L231.686 268.4C231.885 267.188 231.66 266.789 230.611 266.763L213.711 265.967C210.765 265.828 209.551 264.357 210.028 261.551L210.513 258.833C210.999 255.889 212.325 254.816 215.245 254.816H234.442C237.354 254.816 238.576 256.314 238.091 259.283L237.891 260.582H232.847L232.908 260.158C233.047 258.998 232.657 258.573 231.495 258.573H217.221C216.06 258.573 215.661 258.998 215.462 260.158L215.401 260.521C215.202 261.742 215.462 262.08 216.476 262.106L233.376 262.893C236.323 263.032 237.536 264.538 237.059 267.361L236.496 270.581C236.011 273.525 234.685 274.598 231.764 274.598H211.891C208.971 274.598 207.757 273.101 208.243 270.131L208.494 268.495L208.503 268.512Z" fill="#FC0001"/>
<path d="M238.741 274.616L239.703 269.187H245.483L244.521 274.616H238.741Z" fill="#FC0001"/>
<path d="M278.434 254.825H283.244L279.734 274.624H274.69L277.039 261.361L265.738 271.179H262.852L255.069 261.361L252.72 274.624H247.676L251.186 254.825H255.407L264.81 266.651L278.426 254.825H278.434Z" fill="#FC0001"/>
<path d="M307.788 274.616L306.029 270.798H290.429L287.283 274.616H281.138L297.926 254.816H303.732L313.526 274.616H307.78H307.788ZM293.662 266.841H304.191L300.395 258.643L293.653 266.841H293.662Z" fill="#FC0001"/>
<path d="M85.6264 208.533L84.1358 216.61H63.3271L58.1618 245.743H48.3684L53.5338 216.61H32.6211L34.1118 208.533H85.6264Z" fill="#0D2271"/>
<path d="M131.291 208.533C137.73 208.533 140.443 211.78 139.325 218.316L138.424 223.415C137.843 226.662 136.829 228.947 135.338 230.22C133.796 231.493 131.404 232.133 128.154 232.133L126.022 232.454L135.65 245.743H124.479L115.327 232.774H94.8391L92.5511 245.743H82.7578L89.3531 208.533H131.282H131.291ZM129.376 219.216C129.852 216.403 129.003 215.338 126.186 215.338H97.9331L96.0178 226.186H124.644C127.408 226.186 128.206 225.389 128.795 222.627L129.376 219.225V219.216Z" fill="#0D2271"/>
<path d="M185.943 245.743L182.641 238.566H153.322L147.411 245.743H135.867L167.423 208.533H178.334L196.751 245.743H185.952H185.943ZM159.389 231.12H179.183L172.051 215.701L159.389 231.12Z" fill="#0D2271"/>
<path d="M250.388 208.533H259.861L253.266 245.743H245.284L213.728 218.42L208.884 245.743H199.411L206.006 208.533H214.361L245.596 235.536L250.388 208.533Z" fill="#0D2271"/>
<path d="M260.719 234.263H270.192L269.975 235.7C269.706 237.882 270.348 238.678 272.636 238.678H300.733C302.917 238.678 303.662 237.986 304.035 235.7L304.304 234.055C304.676 231.77 304.252 231.025 302.284 230.973L270.512 229.484C264.974 229.216 262.686 226.454 263.596 221.19L264.498 216.091C265.399 210.559 267.904 208.542 273.381 208.542H309.46C314.938 208.542 317.226 211.355 316.324 216.939L315.952 219.381H306.479L306.583 218.584C306.852 216.403 306.106 215.606 303.922 215.606H277.099C274.915 215.606 274.17 216.403 273.797 218.584L273.693 219.277C273.32 221.563 273.797 222.203 275.712 222.255L307.484 223.744C313.014 224.013 315.31 226.826 314.4 232.142L313.334 238.202C312.433 243.734 309.928 245.752 304.451 245.752H267.098C261.62 245.752 259.332 242.938 260.234 237.354L260.71 234.272L260.719 234.263Z" fill="#0D2271"/>
<path d="M191.55 124.33C184.4 130.183 177.536 136.035 171.175 141.628C148.13 161.869 131.612 178.604 131.612 178.604H148.59C159.423 167.886 169.511 158.19 178.906 149.385L208.008 178.604L248.56 177.427L199.428 130.564C245.275 89.4665 268.831 74.9825 268.831 74.9825C245.648 83.1466 216.805 103.682 191.559 124.339L191.55 124.33Z" fill="#FC0001"/>
<path d="M181.931 113.127C181.766 113.249 181.61 113.37 181.454 113.491C180.847 113.941 180.249 114.391 179.651 114.842L178.351 113.491H143.156L160.689 131.1C130.711 157.038 115.579 178.613 115.579 178.613H123.951C136.587 163.453 151.138 149.368 166.166 136.598C172.753 131.005 179.426 125.672 186.073 120.608C233.905 84.1855 280.271 62.0309 280.271 62.0309C240.049 75.8137 207.471 94.1416 181.939 113.136L181.931 113.127Z" fill="#0D2271"/>
<path d="M92.6291 92.3495C84.5345 97.3362 76.7085 102.609 69.1685 108.175H120.787V163.531C125.649 157.826 132.366 150.424 140.954 142.035V108.193H179.694C187.243 102.617 195.086 97.3362 203.19 92.3408H92.6291V92.3495Z" fill="#0D2271"/>
</svg>